<svg xmlns="http://www.w3.org/2000/svg" width="540" height="480" viewBox="0 0 540 480" font-family="ui-monospace, SFMono-Regular, Menlo, Consolas, monospace"><defs><linearGradient id="ibg" x1="0" y1="0" x2="0" y2="1"><stop offset="0" stop-color="#111722"/><stop offset="1" stop-color="#0d1117"/></linearGradient></defs><rect width="540" height="480" rx="12" fill="url(#ibg)"/><rect x="0.5" y="0.5" width="539" height="479" rx="12" fill="none" stroke="#30363d"/><line x1="0" y1="30" x2="540" y2="30" stroke="#30363d"/><circle cx="20" cy="15.0" r="5" fill="#ff5f56"/><circle cx="36" cy="15.0" r="5" fill="#ffbd2e"/><circle cx="52" cy="15.0" r="5" fill="#27c93f"/><text x="270.0" y="19.0" fill="#7d8590" font-size="12" text-anchor="middle">amon@github: ~$ neofetch</text><g><text x="20" y="60.0" font-size="14" font-weight="700"><tspan fill="#3fb950">amon</tspan><tspan fill="#7d8590">@</tspan><tspan fill="#22d3ee">github</tspan></text><line x1="116" y1="56.0" x2="520" y2="56.0" stroke="#30363d" stroke-opacity="0.8"/></g><g><text x="20" y="80.5" fill="#ffa657" font-size="12.5" font-weight="700">Now</text><text x="150" y="80.5" fill="#c9d1d9" font-size="12.5">Engineering Student</text></g><g><text x="20" y="101.0" fill="#ffa657" font-size="12.5" font-weight="700">Research</text><text x="150" y="101.0" fill="#c9d1d9" font-size="12.5">6G Space Communication</text></g><g><text x="20" y="121.5" fill="#ffa657" font-size="12.5" font-weight="700">Ambassador</text><text x="150" y="121.5" fill="#c9d1d9" font-size="12.5">Threws Research World</text></g><g><text x="20" y="142.0" fill="#ffa657" font-size="12.5" font-weight="700">Lead</text><text x="150" y="142.0" fill="#c9d1d9" font-size="12.5">IIC Internship Cell &amp; Electronauts</text></g><g><text x="20" y="172.8" fill="#58a6ff" font-size="12.5" font-weight="700">&#8212; Stack</text><line x1="72" y1="168.8" x2="520" y2="168.8" stroke="#30363d" stroke-opacity="0.8"/></g><g><text x="20" y="193.2" fill="#ffa657" font-size="12.5" font-weight="700">Languages</text><text x="150" y="193.2" fill="#c9d1d9" font-size="12.5">C, C++, Python, JavaScript</text></g><g><text x="20" y="213.8" fill="#ffa657" font-size="12.5" font-weight="700">Frontend</text><text x="150" y="213.8" fill="#c9d1d9" font-size="12.5">HTML, CSS, JS, React, Tailwind</text></g><g><text x="20" y="234.2" fill="#ffa657" font-size="12.5" font-weight="700">Backend</text><text x="150" y="234.2" fill="#c9d1d9" font-size="12.5">Node.js</text></g><g><text x="20" y="254.8" fill="#ffa657" font-size="12.5" font-weight="700">Database</text><text x="150" y="254.8" fill="#c9d1d9" font-size="12.5">MongoDB, MySQL</text></g><g><text x="20" y="275.2" fill="#ffa657" font-size="12.5" font-weight="700">AI/ML</text><text x="150" y="275.2" fill="#c9d1d9" font-size="12.5">TensorFlow, PyTorch, LangChain</text></g><g><text x="20" y="295.8" fill="#ffa657" font-size="12.5" font-weight="700">Certs</text><text x="150" y="295.8" fill="#c9d1d9" font-size="12.5">Google &amp; Microsoft (AI/ML)</text></g><g><text x="20" y="316.2" fill="#ffa657" font-size="12.5" font-weight="700">Tools</text><text x="150" y="316.2" fill="#c9d1d9" font-size="12.5">Git, GitHub, VS Code, MATLAB</text></g><g><text x="20" y="347.0" fill="#58a6ff" font-size="12.5" font-weight="700">&#8212; Highlights</text><line x1="112" y1="343.0" x2="520" y2="343.0" stroke="#30363d" stroke-opacity="0.8"/></g><g><circle cx="23" cy="363.5" r="2.5" fill="#3fb950"/><text x="34" y="367.5" fill="#c9d1d9" font-size="12.5">Built AI-powered Healthcare Platform</text></g><g><circle cx="23" cy="384.0" r="2.5" fill="#3fb950"/><text x="34" y="388.0" fill="#c9d1d9" font-size="12.5">Developed Movie Recommendation System</text></g><g><circle cx="23" cy="404.5" r="2.5" fill="#3fb950"/><text x="34" y="408.5" fill="#c9d1d9" font-size="12.5">Offline AI</text></g><g><circle cx="23" cy="425.0" r="2.5" fill="#3fb950"/><text x="34" y="429.0" fill="#c9d1d9" font-size="12.5">Interested in AI, Web Dev, Research &amp; Robotics</text></g></svg>